
<svg width="159px" height="34px" viewBox="0 0 159 34" version="1.1" xmlns="http://www.w3.org/2000/svg" xmlns:xlink="http://www.w3.org/1999/xlink">
    <defs>
        <polygon points="0.000511278195 0.173411306 16.6801107 0.173411306 16.6801107 33.314807 0.000511278195 33.314807"></polygon>
    </defs>
    <g stroke="none" stroke-width="1" fill="none" fill-rule="evenodd">
        <g transform="translate(-63.000000, -60.000000)">
            <g id="menu" transform="translate(63.000000, 57.000000)">
                <g transform="translate(54.000000, 9.000000)" fill="#FFFFFF">
                    <path d="M11.4956856,10.5799596 C11.3421713,11.7413754 11.146925,12.7276809 10.8637433,13.6032328 C10.0350643,16.2104318 8.52973015,18.159096 6.23893944,19.6931827 C5.97662378,19.845843 5.82459994,19.9341465 5.71579856,19.9341465 C5.56228428,19.9341465 5.4534829,19.8248896 5.23438971,19.5180723 C4.8647631,18.9927412 4.36248823,18.5542169 3.94814873,18.290803 C6.37009727,16.9991768 7.96187637,15.2899798 8.70411045,12.9461947 C9.29283025,11.1501908 9.51043301,8.98151613 9.55365548,5.84898601 C7.89629746,5.84898601 7.2196423,5.89238943 7.11084092,5.89238943 C6.89323816,5.89238943 6.87088171,5.87143605 6.87088171,5.65142558 L6.87088171,3.96467859 C6.87088171,3.74616478 6.89323816,3.72371473 7.11084092,3.72371473 C7.24199874,3.72371473 7.96187637,3.76711816 9.81597113,3.76711816 L11.3645278,3.76711816 L11.3645278,2.32133503 C11.3645278,1.37992966 11.3421713,0.809698421 11.2125039,0 C12.0411829,0.0209533787 12.7387041,0.0868068547 13.4585817,0.175110379 C13.6776749,0.197560428 13.8073423,0.284367283 13.8073423,0.393624186 C13.8073423,0.570231236 13.7432538,0.700441518 13.6776749,0.853101848 C13.5688735,1.09556237 13.5688735,1.44578313 13.5688735,2.32133503 L13.5688735,3.76711816 L15.8373078,3.76711816 C17.9090053,3.76711816 18.628883,3.72371473 18.7600408,3.72371473 C18.979134,3.72371473 19,3.74616478 19,3.96467859 L19,5.65142558 C19,5.87143605 18.979134,5.89238943 18.7600408,5.89238943 C18.628883,5.89238943 17.9090053,5.84898601 15.8373078,5.84898601 L11.8012237,5.84898601 C11.7788673,6.83529148 11.7580013,7.71084337 11.6924223,8.54299184 L15.2038751,8.54299184 C16.7092093,8.54299184 17.1235488,8.49958842 17.2547066,8.49958842 C17.4946658,8.49958842 17.5602447,8.56544189 17.5602447,8.7839557 C17.5170223,9.33173689 17.4946658,9.90047145 17.4946658,10.4258026 C17.4290869,13.8876001 17.2338406,15.706054 17.0147474,16.9333234 C16.6227644,18.9927412 15.7717289,19.6931827 13.5897396,19.6931827 C13.240979,19.6931827 12.804283,19.6931827 12.433166,19.6707326 C11.9100251,19.6273292 11.9100251,19.6273292 11.8012237,18.9268877 C11.7132884,18.2698496 11.5389081,17.7654718 11.3213053,17.392801 C12.3034986,17.5020579 12.9145748,17.546958 13.4809382,17.546958 C14.2231723,17.546958 14.5719329,17.1742872 14.7463131,16.3855422 C15.0071384,15.3333832 15.2038751,13.5598294 15.248588,10.5799596 L11.4956856,10.5799596 Z M5.29996862,0.809698421 C5.51906181,0.809698421 5.65021964,0.788745042 5.73666457,0.745341615 C5.82459994,0.700441518 5.88868842,0.679488139 5.97662378,0.679488139 C6.17336053,0.679488139 6.32538437,0.788745042 6.82765924,1.33652623 C7.30757766,1.81845394 7.39551302,2.0145177 7.39551302,2.19112475 C7.39551302,2.32133503 7.30757766,2.45304198 7.17641983,2.56379555 C7.00203954,2.71645589 6.87088171,2.95741974 6.76208033,3.28519045 C6.13013806,4.86268054 5.69344211,6.13335329 4.93034201,7.60158647 C6.54447757,9.55174736 6.82765924,10.8643269 6.82765924,12.0915962 C6.82765924,14.1285639 5.95575777,15.3124298 3.83934735,15.4650902 C3.14182617,15.5309437 3.14182617,15.5309437 3.05389081,14.8514555 C2.96595544,14.2168675 2.8139316,13.6690863 2.57397239,13.384719 C3.92579228,13.4490758 4.71124882,13.1437551 4.71124882,11.8072289 C4.71124882,10.7984734 4.20897396,9.74781112 2.66041732,7.77669685 C3.55467524,6.08994986 4.07930656,4.62171668 4.64566991,2.82571279 L2.20285535,2.82571279 L2.20285535,15.1358228 C2.20285535,18.0947392 2.24607782,19.6497792 2.24607782,19.7799895 C2.24607782,19.97755 2.2252118,20 1.98525259,20 L0.239959209,20 C0.0208660182,20 0,19.97755 0,19.7799895 C0,19.6273292 0.0432224663,18.159096 0.0432224663,15.1358228 L0.0432224663,5.69482901 C0.0432224663,2.65060241 0,1.16141585 0,1.0297089 C0,0.788745042 0.0208660182,0.766294994 0.239959209,0.766294994 C0.391983056,0.766294994 0.959836837,0.809698421 2.09405397,0.809698421 L5.29996862,0.809698421 Z"></path>
                    <path d="M35.5587947,10.8040918 C35.7677589,10.4684433 35.9352166,10.2159897 36.0826365,9.77563038 C36.7309981,10.0266496 37.380791,10.3207006 37.8416573,10.5946701 C38.1780038,10.7825759 38.239548,10.8456893 38.239548,10.9719161 C38.239548,11.1182244 38.1350659,11.2229352 37.9890772,11.3075645 C37.8416573,11.3921939 37.7371751,11.5184207 37.5897552,11.7063264 C37.0244068,12.4837687 36.2715631,13.3444059 35.5172881,14.0587347 C35.286855,14.2681564 35.160904,14.3929488 35.0349529,14.3929488 C34.9090019,14.3929488 34.7830508,14.2681564 34.5111111,14.0587347 C34.0931827,13.7216518 33.652354,13.4491167 33.2544633,13.2812925 C34.133258,12.5253661 35.0349529,11.5600181 35.5587947,10.8040918 Z M37.0043691,9.14593085 C36.7954049,9.29223917 36.7309981,9.27215763 36.6064783,9.08281745 C35.6847458,7.71727314 34.6585311,6.62569832 33.400452,5.49252605 C33.2329944,5.3247018 33.1485499,5.21855655 33.1485499,5.11384569 C33.1485499,4.9890533 33.2329944,4.88434244 33.400452,4.7150838 C34.1976648,3.89747848 34.9719774,3.03540692 35.6003013,2.11165635 C35.7892279,1.81760531 36.019661,1.42027782 36.2085876,1 C36.899887,1.23093764 37.5282109,1.48195682 38.1150282,1.77744225 C38.2810546,1.86063717 38.3654991,1.9438321 38.3654991,2.07005889 C38.3654991,2.19628567 38.2810546,2.28091499 38.1350659,2.36410992 C37.9676083,2.46882078 37.8631262,2.61656349 37.6112241,2.93069606 C36.9829002,3.66510645 36.4175518,4.27472445 35.6847458,4.9890533 C36.6680226,5.78657708 37.7371751,6.77344104 38.5114878,7.73878907 C38.6589077,7.92812925 38.6374388,7.94821078 38.3654991,8.13755096 L37.0043691,9.14593085 Z M31.2650094,8.9781066 C31.0546139,9.12441492 30.9916384,9.10289899 30.8656874,8.91499321 C30.0069303,7.67567568 28.960678,6.52098747 27.7870433,5.42941265 C27.6195857,5.28166994 27.5351412,5.17695908 27.5351412,5.09376416 C27.5351412,4.9890533 27.6195857,4.88434244 27.7870433,4.7150838 C28.5413183,3.96059188 29.3571375,3.05692284 29.9224859,2.2178016 C30.1743879,1.83912124 30.3847834,1.50347275 30.57371,1.061679 C31.2020339,1.2725351 31.8919021,1.52498868 32.4801507,1.83912124 C32.667646,1.92375057 32.7306215,2.00694549 32.7306215,2.13317228 C32.7306215,2.28091499 32.646177,2.34402839 32.520226,2.42722331 C32.3541996,2.53193417 32.2282486,2.65816095 31.9763465,2.97372792 C31.432467,3.64502491 30.7826742,4.31632191 30.0913748,4.9890533 C31.0131073,5.74497962 31.9548776,6.60561679 32.7306215,7.57096482 C32.8766102,7.73878907 32.8766102,7.73878907 32.6046704,7.94821078 L31.2650094,8.9781066 Z M22.7375518,14.0157029 C22.4656121,13.8894761 22.4656121,13.7847652 22.613032,13.6384569 C23.5132957,12.6716745 24.3305461,11.3921939 24.8114501,10.1528763 C24.8958945,9.94345463 24.9588701,9.94345463 25.2522787,10.0481655 L26.6134087,10.5315567 C26.8653107,10.6147516 26.8853484,10.677865 26.8023352,10.8887211 C26.2155179,12.2729126 25.4412053,13.5753435 24.5395104,14.6454024 C24.4564972,14.7501132 24.4135593,14.7931451 24.3305461,14.7931451 C24.2675706,14.7931451 24.1831262,14.7501132 24.0371375,14.6884342 L22.7375518,14.0157029 Z M25.713145,9.18752831 C25.5242185,9.3123207 25.4412053,9.29223917 25.3352919,9.10289899 C24.5194727,7.84349992 23.3658757,6.56258493 22.1106591,5.40789672 C21.9417702,5.24007247 21.8587571,5.15687755 21.8587571,5.07224823 C21.8587571,4.9890533 21.9417702,4.88434244 22.1106591,4.7150838 C23.0524294,3.79133323 23.7437288,2.97372792 24.2675706,2.19628567 C24.5194727,1.83912124 24.7284369,1.50347275 24.8958945,1.10471086 C25.5456874,1.29405103 26.2999623,1.56658614 26.8653107,1.88071871 C27.0542373,1.98686396 27.1172128,2.07005889 27.1172128,2.19628567 C27.1172128,2.32251246 27.0542373,2.40714178 26.9068173,2.49033671 C26.7393597,2.59504756 26.6134087,2.69975842 26.3414689,3.01532538 C25.7546516,3.68662238 25.1893032,4.31632191 24.4765348,4.9890533 C25.4612429,5.78657708 26.4259134,6.79352257 27.2417326,7.78038653 C27.3676836,7.94821078 27.347646,7.99124264 27.074275,8.17914842 L25.713145,9.18752831 Z M39.2242561,19.4319795 C39.0768362,19.8737732 39.0152919,20 38.8063277,20 C38.7004143,20 38.5114878,19.9569681 38.3440301,19.9153707 C36.0611676,19.2856711 34.4896422,18.4465499 33.1714501,17.3750566 C32.1438041,16.5359354 31.2650094,15.485958 30.6152166,14.1218481 C30.2173258,15.1072777 29.6720151,16.0310282 28.8347269,16.9131813 C27.3891525,18.425034 25.3782298,19.390382 22.7175141,19.9153707 C22.5071186,19.9569681 22.339661,19.9784841 22.2566478,19.9784841 C22.0677213,19.9784841 21.9847081,19.8737732 21.8787947,19.5582063 C21.6283239,18.8869093 21.3134463,18.3834365 21,17.9832402 C23.8067043,17.6475917 26.0265913,16.6822437 27.3676836,15.3166994 C28.5198493,14.1003322 29.0021846,12.6515929 29.1696422,11.2444512 C29.2741243,10.5731542 29.2526554,9.5862902 29.1896798,9.08281745 C29.9224859,9.12441492 30.6152166,9.18752831 31.306516,9.3123207 C31.5369492,9.35535256 31.6414313,9.43854749 31.6414313,9.56477427 C31.6414313,9.75411445 31.5369492,9.9219387 31.4739736,10.0696814 C31.4109981,10.2159897 31.3895292,10.6362676 31.3480226,11.055111 C31.8503955,13.2181791 33.0240301,14.5622075 34.1976648,15.4644421 C35.5373258,16.472822 37.506742,17.3334592 40,17.815416 C39.6650847,18.3404047 39.3917137,18.9069908 39.2242561,19.4319795 Z"></path>
                    <path d="M47.0779475,7.13339523 L56.1508956,7.13339523 L56.1508956,5.79851439 L47.0779475,5.79851439 L47.0779475,7.13339523 Z M47.0779475,4.1416744 L56.1508956,4.1416744 L56.1508956,2.85089755 L47.0779475,2.85089755 L47.0779475,4.1416744 Z M51.943951,12.2112349 C50.1583949,14.9221603 47.9707256,16.7715877 44.9962504,18.0638347 C44.7189811,18.1917363 44.5491355,18.2564222 44.4213884,18.2564222 C44.2297677,18.2564222 44.1455707,18.1270504 43.9757252,17.8050913 C43.6999075,17.2890746 43.4023148,16.8583256 43.1047222,16.5569483 C45.9514503,15.4808109 48.1405712,14.1253482 49.5632095,12.2112349 L47.4176387,12.2112349 C46.4406637,13.0933148 45.2923914,13.803389 43.9975002,14.4267255 C43.742006,14.5560972 43.5939355,14.620783 43.4661884,14.620783 C43.3181179,14.620783 43.2106942,14.4914113 42.9987501,14.190034 C42.7011574,13.7387032 42.3832413,13.37264 42,13.0492108 C44.591234,12.0377592 46.037099,11.1350975 47.3334418,9.43415351 C47.4815123,9.24156608 47.6092594,9.04750851 47.6934563,8.85345094 C45.9093518,8.85345094 45.2502929,8.89755494 45.1225458,8.89755494 C44.9106017,8.89755494 44.8902783,8.87550294 44.8902783,8.66086351 C44.8902783,8.5094398 44.9323768,7.95078923 44.9323768,6.61590839 L44.9323768,3.28017642 C44.9323768,1.94676571 44.8902783,1.386645 44.8902783,1.23669143 C44.8902783,1.022052 44.9106017,1 45.1225458,1 C45.272068,1 45.9732254,1.04263386 48.0345992,1.04263386 L55.1739205,1.04263386 C57.2338426,1.04263386 57.9567751,1 58.1048457,1 C58.3182414,1 58.3385648,1.022052 58.3385648,1.23669143 C58.3385648,1.36606314 58.2964663,1.94676571 58.2964663,3.28017642 L58.2964663,6.61590839 C58.2964663,7.95078923 58.3385648,8.5314918 58.3385648,8.66086351 C58.3385648,8.87550294 58.3182414,8.89755494 58.1048457,8.89755494 C57.9567751,8.89755494 57.2338426,8.85345094 55.1739205,8.85345094 L49.9246757,8.85345094 C50.0103243,8.9181368 50.0524228,8.98282266 50.0524228,9.04750851 C50.0524228,9.17688022 49.9682259,9.28419994 49.9043523,9.34888579 C49.7548301,9.45620551 49.6706332,9.49883937 49.5428861,9.71494893 C49.3715888,9.99427422 49.1814198,10.2530176 49.0115742,10.4897091 L56.8302779,10.4897091 C58.8698766,10.4897091 59.6131325,10.4456051 59.7408796,10.4456051 C59.9542754,10.4456051 60.0166973,10.4897091 59.9963739,10.7043485 C59.9325003,11.3923708 59.9107252,12.0171773 59.8686267,12.6625658 C59.6987812,14.7501548 59.5071605,16.5569483 59.2313429,17.7830393 C58.8916517,19.2899257 57.7869296,19.8706283 56.192994,19.8706283 C55.7894293,19.8706283 55.3423144,19.8706283 54.8966512,19.8279944 C54.5148616,19.7838904 54.450988,19.8059424 54.3232409,19.182606 C54.1954938,18.5357474 54.0038731,17.9991489 53.7498306,17.5683999 C54.6629321,17.6757196 55.4279631,17.7183535 56.1508956,17.7183535 C56.6822074,17.7183535 57.0639971,17.5463479 57.2120676,16.7936397 C57.4457867,15.6101826 57.6374074,14.3194058 57.7216043,12.2112349 L56.171219,12.2112349 C54.8327777,15.6101826 52.6872069,18.1270504 49.627083,19.7633086 C49.3512654,19.9132621 49.2031949,20 49.0754478,20 C48.9056022,20 48.7981785,19.8485763 48.565911,19.5266171 C48.2465433,19.0752863 47.9068521,18.729805 47.5453858,18.4725317 C50.9872994,16.7936397 52.8788276,14.8148406 53.9835497,12.2112349 L51.943951,12.2112349 Z"></path>
                    <path d="M76.1372267,3.2225589 C74.537687,3.2225589 74.0529344,3.26429816 73.9263521,3.26429816 C73.7163406,3.26429816 73.6947641,3.24414817 73.6947641,3.03257329 L73.6947641,1.515567 C73.6947641,1.30543141 73.7163406,1.28384213 73.9263521,1.28384213 C74.0529344,1.28384213 74.537687,1.32702068 76.1372267,1.32702068 L79.1895857,1.32702068 C80.4741082,1.32702068 81.0005754,1.28384213 81.1271577,1.28384213 C81.3587457,1.28384213 81.3803222,1.30543141 81.3803222,1.515567 C81.3803222,1.64222407 81.3371692,2.25392016 81.3371692,3.58094084 L81.3371692,6.40337853 C81.3371692,7.73039921 81.3803222,8.3420953 81.3803222,8.46731308 C81.3803222,8.65729869 81.3587457,8.67888796 81.1271577,8.67888796 C81.0005754,8.67888796 80.4741082,8.63570942 79.1895857,8.63570942 L76.1156502,8.63570942 L76.1156502,12.4699644 C76.1156502,12.9118249 76.1156502,13.144989 76.263809,13.2917961 C76.5155351,13.503371 77.0002877,13.5652602 78.0532221,13.5652602 C79.0011507,13.5652602 79.5693326,13.503371 79.9059264,13.1867283 C80.179229,12.9118249 80.3058113,12.3433073 80.3475259,10.9745474 C80.7689873,11.2062723 81.273878,11.4379971 81.7586306,11.5646542 C82.4102417,11.7330505 82.4102417,11.7330505 82.3901036,12.4066359 C82.2635213,13.7135066 81.9269275,14.4302704 81.4220368,14.8721309 C80.8739931,15.3557306 80.0325086,15.6090448 77.9266398,15.6090448 C75.8006329,15.6090448 74.9375719,15.4190592 74.537687,15.0621165 C74.1162255,14.7238846 74.0097814,14.2820241 74.0097814,13.3968639 L74.0097814,8.97394137 C74.0097814,7.70880994 73.9680667,7.07696387 73.9680667,6.95030679 C73.9680667,6.71858193 73.9896433,6.69843194 74.1996548,6.69843194 C74.3262371,6.69843194 74.8742808,6.7401712 76.052359,6.7401712 L79.2313003,6.7401712 L79.2313003,3.2225589 L76.1372267,3.2225589 Z M66.3055236,8.61555943 C64.4945339,8.61555943 63.863061,8.65729869 63.7364787,8.65729869 C63.5466053,8.65729869 63.5264672,8.63570942 63.5264672,8.44572381 L63.5264672,6.88697826 C63.5264672,6.67684266 63.5466053,6.65669267 63.7364787,6.65669267 C63.863061,6.65669267 64.4945339,6.69843194 66.3055236,6.69843194 L67.7166283,6.69843194 L67.7166283,4.65464738 L66.8521289,4.65464738 C65.16916,4.65464738 64.5995397,4.69638664 64.4729574,4.69638664 C64.2629459,4.69638664 64.2413694,4.67623665 64.2413694,4.46466177 L64.2413694,2.94909477 C64.2413694,2.73751988 64.2629459,2.71593061 64.4729574,2.71593061 C64.5995397,2.71593061 65.16916,2.75910916 66.8521289,2.75910916 L67.7166283,2.75910916 C67.7166283,1.39034922 67.6950518,0.820392395 67.5684695,0 C68.3265247,0.0201499886 69.0212888,0.0618892508 69.6743383,0.14680706 C69.8843498,0.188546322 69.9893556,0.251874858 69.9893556,0.378531929 C69.9893556,0.483599727 69.947641,0.588667525 69.8843498,0.73691387 C69.8210587,0.947049466 69.7793441,1.34717067 69.7793441,2.33739868 L69.7793441,2.75910916 L70.0943613,2.75910916 C71.8003452,2.75910916 72.3268124,2.71593061 72.4519563,2.71593061 C72.6849827,2.71593061 72.7051208,2.73751988 72.7051208,2.94909477 L72.7051208,4.46466177 C72.7051208,4.67623665 72.6849827,4.69638664 72.4519563,4.69638664 C72.3268124,4.69638664 71.8003452,4.65464738 70.0943613,4.65464738 L69.7793441,4.65464738 L69.7793441,6.69843194 L70.3691024,6.69843194 C72.1800921,6.69843194 72.8101266,6.65669267 72.9367089,6.65669267 C73.1467204,6.65669267 73.1682969,6.67684266 73.1682969,6.88697826 L73.1682969,8.44572381 C73.1682969,8.63570942 73.1467204,8.65729869 72.9367089,8.65729869 C72.8101266,8.65729869 72.1800921,8.61555943 70.3691024,8.61555943 L69.9044879,8.61555943 L69.9044879,10.9529581 L71.1674338,10.9529581 C72.1168009,10.9529581 72.4951093,10.9112188 72.6216916,10.9112188 C72.8317031,10.9112188 72.8532796,10.9328081 72.8532796,11.1429437 L72.8532796,12.6815393 C72.8532796,12.8700856 72.8317031,12.8916749 72.6216916,12.8916749 C72.4951093,12.8916749 72.1168009,12.8484963 71.1674338,12.8484963 L69.9044879,12.8484963 L69.9044879,16.0523445 C71.1472957,16.5575335 72.7266974,16.7892584 74.9375719,16.7892584 C77.7799194,16.7892584 80.3058113,16.641012 83,16.3042194 C82.7266974,16.6841906 82.5166858,17.3779259 82.3901036,17.9464435 C82.2635213,18.6214681 82.2635213,18.6214681 81.6119102,18.6646466 C79.4211738,18.8316037 77.5051784,18.8747822 75.1058688,18.8747822 C72.2419448,18.8747822 70.2008055,18.5164003 68.6846951,17.6312401 C67.5051784,16.9562154 66.726985,16.2408908 65.9890679,15.018938 C65.6941887,16.2826301 65.2741657,17.5261723 64.8311277,18.474661 C64.6628308,18.8316037 64.5578251,19 64.4312428,19 C64.3262371,19 64.2212313,18.8531929 64.0529344,18.5998788 C63.7364787,18.1162791 63.4214614,17.7794864 63,17.4628437 C64.0730725,15.630634 64.6628308,13.2702068 64.726122,10.9529581 C64.7476985,10.5326869 64.7476985,10.0274979 64.7059839,9.60578744 C65.2525892,9.6475267 65.9689298,9.79433376 66.4738205,9.90084085 C66.726985,9.96416938 66.8319908,10.0274979 66.8319908,10.1527157 C66.8319908,10.2577835 66.7686997,10.3628513 66.726985,10.4693584 C66.6421174,10.6377547 66.6205409,10.9328081 66.5788262,11.2897508 C66.5371116,11.8381183 66.4738205,12.4066359 66.3889528,12.9751534 C66.8104143,13.7135066 67.3153049,14.3237634 67.9266398,14.8505416 L67.9266398,8.61555943 L66.3055236,8.61555943 Z"></path>
                    <path d="M100.693168,7.63373566 C101.533059,8.83325883 102.781864,9.967218 104.310142,10.8612725 C103.901228,11.2099538 103.557035,11.6689018 103.255498,12.1919237 C103.083401,12.5182536 102.996617,12.6493816 102.868647,12.6493816 C102.7598,12.6493816 102.631831,12.5629563 102.415606,12.3662643 C101.468339,11.5586351 100.585791,10.5990165 99.9194675,9.66174937 C99.573803,10.3814633 99.186953,11.0579645 98.6912554,11.7329757 C98.4970949,11.9952317 98.3897183,12.1040083 98.2823417,12.1040083 C98.1529014,12.1040083 98.0455247,11.9520191 97.8307715,11.6897631 C97.5071707,11.2546565 97.1850408,10.9491879 96.7746562,10.6437193 C97.8513643,9.4441961 98.3676546,8.2655342 98.8206957,6.97958575 C99.035449,6.34629712 99.1428256,5.80241395 99.186953,5.25555059 C99.9400603,5.42989122 100.456351,5.58337059 100.994705,5.80241395 C101.231522,5.88883922 101.383026,6.01996722 101.383026,6.14960513 C101.383026,6.30308449 101.296242,6.41186112 101.210929,6.49977649 C101.059425,6.65176576 100.929985,6.84845776 100.800544,7.28505439 L100.693168,7.63373566 Z M90.5747591,5.78006258 C90.7909833,5.86648786 90.9630801,5.97675458 90.9630801,6.10788258 C90.9630801,6.25987185 90.8762962,6.34629712 90.7909833,6.43421249 C90.6394793,6.60855312 90.4894462,6.80524512 90.3600059,7.24035166 C90.2952857,7.41618239 90.2526293,7.59052302 90.2099728,7.76486366 C90.8115761,8.70213083 91.5440906,9.46505737 92.6855189,10.229474 C92.2766051,10.6213679 91.9530043,11.0803159 91.6514672,11.5809864 C91.4793704,11.8864551 91.3719938,12.0399344 91.2425535,12.0399344 C91.1351769,12.0399344 91.0278003,11.9296677 90.8557035,11.7553271 C90.2526293,11.1235285 89.7569317,10.4902399 89.3259543,9.83609 C88.8096639,10.8180599 88.1859969,11.7329757 87.4108259,12.540605 C87.1960727,12.7581582 87.0651614,12.8892862 86.9592557,12.8892862 C86.8504082,12.8892862 86.7430316,12.7581582 86.5282783,12.475041 C86.162021,11.9952317 85.7737001,11.6241991 85.4074428,11.3202205 C86.9151283,10.0551334 87.8418033,8.35344956 88.33603,6.87080912 C88.5287196,6.25987185 88.6375671,5.75771122 88.7022873,5.21233795 C89.4553946,5.38667859 90.0158123,5.56101922 90.5747591,5.78006258 Z M93.6533794,2.57338698 C93.6533794,1.30829981 93.6327866,0.871703174 93.5033463,0 C94.2785173,0.0223513634 95.0742811,0.0655639994 95.8273884,0.151989271 C96.0436126,0.174340635 96.1289255,0.28311727 96.1289255,0.371032633 C96.1289255,0.588585904 96.0436126,0.785277902 96.0009561,0.9819699 C95.9362359,1.26508717 95.8921086,1.67933244 95.8921086,2.55103561 L95.8921086,2.68216361 L101.512466,2.68216361 C103.449658,2.68216361 104.115981,2.63895098 104.246893,2.63895098 C104.482239,2.63895098 104.504302,2.66130234 104.504302,2.87885561 L104.504302,4.60140069 C104.504302,4.82044405 104.482239,4.84130532 104.246893,4.84130532 C104.115981,4.84130532 103.449658,4.79809268 101.512466,4.79809268 L95.8921086,4.79809268 L95.8921086,9.98956936 C97.9381481,13.1724035 100.844672,15.4850246 105,16.9244524 C104.569023,17.361049 104.182173,17.9704962 103.880635,18.5814335 C103.707068,18.9524661 103.621755,19.1059455 103.470251,19.1059455 C103.342281,19.1059455 103.190777,19.0403815 102.95396,18.9092535 C99.8326837,17.361049 97.485107,15.4626732 95.8273884,13.0427656 C95.8715158,16.0959619 95.9362359,18.9956787 95.9362359,19.7600954 C95.9362359,19.9776486 95.9141722,20 95.699419,20 L93.8269471,20 C93.610723,20 93.5886593,19.9776486 93.5886593,19.7600954 C93.5886593,18.9524661 93.6533794,16.1615259 93.6754431,13.1947549 C92.060381,15.5505886 89.7569317,17.492177 87.0651614,18.9316048 C86.8077517,19.0612427 86.6577186,19.1491581 86.5488711,19.1491581 C86.3767743,19.1491581 86.2914614,18.9956787 86.0973009,18.6246461 C85.7737001,18.0584116 85.4074428,17.5994636 85,17.229921 C88.5287196,15.7249292 91.7161874,13.1724035 93.6533794,10.0104306 L93.6533794,4.79809268 L88.4007502,4.79809268 C86.4414944,4.79809268 85.7737001,4.84130532 85.6457307,4.84130532 C85.4295065,4.84130532 85.4295065,4.82044405 85.4295065,4.60140069 L85.4295065,2.87885561 C85.4295065,2.66130234 85.4295065,2.63895098 85.6457307,2.63895098 C85.7737001,2.63895098 86.4414944,2.68216361 88.4007502,2.68216361 L93.6533794,2.68216361 L93.6533794,2.57338698 Z"></path>
                </g>
                <g transform="translate(0.000000, 3.000000)">
                    <g>
                        <mask fill="white">
                            <use xlink:href="#path-1"></use>
                        </mask>
                        <g></g>
                        <path d="M15.0487068,30.7261131 C14.193594,30.9643977 13.2771278,30.7373411 12.6546466,30.1297778 L3.7341203,21.4242807 L2.80359398,22.2788616 L3.64081203,21.3207329 C3.57818045,21.2533645 3.5078797,21.1934815 3.43246617,21.1410838 C2.88284211,20.7643197 2.55690226,20.1555088 2.55690226,19.5130136 L2.55690226,4.6582768 C2.55690226,3.56166862 3.47081203,2.66841326 4.59562406,2.66841326 C5.71915789,2.66841326 6.63434586,3.56166862 6.63434586,4.6582768 L6.63434586,7.97554776 C6.63434586,8.66420273 7.20697744,9.22311111 7.91254135,9.22311111 C8.61810526,9.22311111 9.19073684,8.66420273 9.19073684,7.97554776 L9.19073684,4.6582768 C9.19073684,2.18560624 7.12900752,0.17328655 4.59562406,0.17328655 C2.06096241,0.17328655 0.000511278195,2.18560624 0.000511278195,4.6582768 L0.000511278195,19.5130136 C0.000511278195,20.9152749 0.681789474,22.2401871 1.83088722,23.0885302 C1.86284211,23.1247096 1.89479699,23.1583938 1.92675188,23.1883353 L10.846,31.8950799 C11.7918647,32.8170292 13.0636692,33.314807 14.3687068,33.314807 C14.8314135,33.314807 15.2979549,33.2524288 15.7555489,33.1239298 C16.4329925,32.9343002 16.8253985,32.2419025 16.6298346,31.580694 C16.4342707,30.9182378 15.729985,30.5352359 15.0487068,30.7261131" fill="#FFFFFF" mask="url(#mask-2)"></path>
                    </g>
                    <path d="M35.4994469,0 C33.0181963,0 30.9988939,1.98143114 30.9988939,4.41737532 L30.9988939,6.8545479 C30.9988939,7.53263221 31.5597417,8.08296151 32.2507862,8.08296151 C32.9418308,8.08296151 33.5026786,7.53263221 33.5026786,6.8545479 L33.5026786,4.41737532 C33.5026786,3.33637135 34.3990335,2.45682721 35.4994469,2.45682721 C36.5998603,2.45682721 37.4962153,3.33637135 37.4962153,4.41737532 L37.4962153,19.0428677 C37.4962153,19.6755007 37.1757308,20.2749665 36.638669,20.6459474 L27.6062656,29.4966674 C26.7136663,30.3712979 25.1387857,30.3725263 24.2474383,29.4966674 L10.6068191,16.1118728 L10.4991563,16.017285 C10.4928969,16.0135997 9.91827828,15.5222343 9.87446204,14.7790441 C9.82313446,13.9068704 10.5216904,13.0273263 11.1163393,12.4438298 C11.6058292,11.9635201 11.6058292,11.1859343 11.1163393,10.706853 C10.6268494,10.2265432 9.83565338,10.2265432 9.34616346,10.706853 C7.95405915,12.0728489 7.2905562,13.4916666 7.37568488,14.92154 C7.47333248,16.5872689 8.56247884,17.6228215 8.87545193,17.8869305 L22.4772625,31.2336443 C23.3961515,32.1352999 24.6205023,32.6315789 25.9274779,32.6315789 C27.2332016,32.6315789 28.4575524,32.1352999 29.3764414,31.2336443 L38.1133982,22.6617741 C38.1434436,22.6310638 38.173489,22.6003535 38.2072901,22.5635011 C39.3339933,21.7269514 40,20.4223761 40,19.0428677 L40,4.41737532 C40,1.98143114 37.9806976,0 35.4994469,0" fill="#FFFFFF"></path>
                    <path d="M15.7585366,7.86038493 L19.4391008,4.17995271 C19.8335375,3.7855301 20.3522663,3.58895291 20.8697267,3.58895291 C21.3871871,3.58895291 21.9059159,3.7855301 22.3003526,4.17995271 C23.0892261,4.96879794 23.0892261,6.25225673 22.3003526,7.04110195 L18.6197884,10.7215342 C17.8309149,11.5103794 16.5474101,11.5103794 15.7585366,10.7215342 C14.9696631,9.93268895 14.9696631,8.64923016 15.7585366,7.86038493 M25.5243341,8.24339339 C26.0417945,8.24339339 26.5605233,8.44123881 26.95496,8.83566142 C27.3341773,9.21486516 27.5434444,9.72342936 27.5434444,10.2649678 C27.5434444,10.8077745 27.3341773,11.3163387 26.95496,11.6955424 L23.2743958,15.3772429 C22.4855223,16.1660881 21.2020175,16.1660881 20.413144,15.3772429 C19.6255387,14.5883977 19.6255387,13.3036706 20.413144,12.5148254 L24.0937082,8.83566142 C24.4881449,8.44123881 25.0068737,8.24339339 25.5243341,8.24339339 M30.1802098,12.8978339 C30.6976702,12.8978339 31.2163989,13.094411 31.6108357,13.4888337 C32.3997092,14.2789471 32.3997092,15.5624059 31.6108357,16.3512511 L27.9302715,20.0316834 C27.1401297,20.8205286 25.8566249,20.8205286 25.0677514,20.0316834 C24.2788778,19.2428381 24.2788778,17.9593793 25.0677514,17.1705341 L28.7483156,13.4901019 L28.7508521,13.4875654 C29.1440206,13.094411 29.661481,12.8978339 30.1802098,12.8978339 M17.1891625,13.8490138 C17.2259428,13.8490138 17.2614548,13.8388679 17.2969668,13.8375996 C17.2690645,15.0424275 17.7040864,16.2535967 18.6197884,17.1705341 C19.5088565,18.0595703 20.6769473,18.5034543 21.8437699,18.5034543 C21.8805502,18.5034543 21.9147939,18.4945766 21.9515741,18.4933083 C21.9236719,19.696868 22.3586938,20.9080371 23.2743958,21.8249746 C24.1634639,22.7140108 25.3315547,23.1578947 26.4996456,23.1578947 C27.6664681,23.1578947 28.834559,22.7140108 29.723627,21.8249746 L33.4041912,18.1445424 C35.1810591,16.36647 35.1810591,13.4736148 33.4041912,11.6955424 C32.4872209,10.7798732 31.2747401,10.3435987 30.0698689,10.3727682 C30.0711372,10.3372575 30.0800152,10.3017468 30.0800152,10.2649678 C30.0800152,9.04492101 29.6069448,7.89970037 28.7483156,7.04110195 C27.8326135,6.12543273 26.6201327,5.69169469 25.4177981,5.71959596 C25.4457004,4.51603629 25.0106785,3.30359893 24.0937082,2.38666148 C22.3168403,0.608589123 19.4226131,0.607320883 17.6457452,2.38666148 L13.965181,6.0670937 C12.1870449,7.84516605 12.1870449,10.7380213 13.965181,12.5148254 C14.8542491,13.4051298 16.0223399,13.8490138 17.1891625,13.8490138" fill="#FFFFFF"></path>
                </g>
            </g>
        </g>
    </g>
</svg>